<?xml version="1.0" encoding="UTF-8" standalone="no"?>
<!-- Created with Inkscape (http://www.inkscape.org/) -->

<svg
   xmlns:dc="http://purl.org/dc/elements/1.1/"
   xmlns:cc="http://creativecommons.org/ns#"
   xmlns:rdf="http://www.w3.org/1999/02/22-rdf-syntax-ns#"
   xmlns:svg="http://www.w3.org/2000/svg"
   xmlns="http://www.w3.org/2000/svg"
   xmlns:sodipodi="http://sodipodi.sourceforge.net/DTD/sodipodi-0.dtd"
   xmlns:inkscape="http://www.inkscape.org/namespaces/inkscape"
   width="155.6662mm"
   height="128.59381mm"
   viewBox="0 0 155.6662 128.59381"
   version="1.1"
   id="svg955"
   inkscape:version="0.92.5 (2060ec1f9f, 2020-04-08)"
   sodipodi:docname="direnv_template_logo.svg">
  <defs
     id="defs949" />
  <sodipodi:namedview
     id="base"
     pagecolor="#ffffff"
     bordercolor="#666666"
     borderopacity="1.0"
     inkscape:pageopacity="0.0"
     inkscape:pageshadow="2"
     inkscape:zoom="0.49497475"
     inkscape:cx="-77.97477"
     inkscape:cy="-83.102157"
     inkscape:document-units="mm"
     inkscape:current-layer="g8"
     showgrid="false"
     inkscape:window-width="1914"
     inkscape:window-height="1042"
     inkscape:window-x="0"
     inkscape:window-y="16"
     inkscape:window-maximized="0" />
  <metadata
     id="metadata952">
    <rdf:RDF>
      <cc:Work
         rdf:about="">
        <dc:format>image/svg+xml</dc:format>
        <dc:type
           rdf:resource="http://purl.org/dc/dcmitype/StillImage" />
        <dc:title></dc:title>
      </cc:Work>
    </rdf:RDF>
  </metadata>
  <g
     inkscape:label="Layer 1"
     inkscape:groupmode="layer"
     id="layer1"
     transform="translate(109.6632,-17.738879)">
    <g
       transform="matrix(0.26458333,0,0,0.26458333,86.042613,-94.332216)"
       id="g8">
      <g
         id="g2191">
        <g
           id="g66"
           transform="matrix(10.608844,0,0,10.608844,-773.02696,337.18015)"
           style="fill:#f4f6f8;stroke:#000000;stroke-width:0.71252394;stroke-linecap:round;stroke-linejoin:round;stroke-miterlimit:4;stroke-dasharray:none;stroke-opacity:1">
          <path
             style="fill:#b71c1c;fill-opacity:1;stroke:#000000;stroke-width:0.71252394;stroke-miterlimit:4;stroke-dasharray:none;stroke-opacity:1"
             id="path62"
             d="M 7,8.5 C 6,8.5 5.5,9 5.5,10 v 30.5 h 37 V 13 C 42.5,12 42,11.5 41,11.5 H 21.5 L 19,9 C 18.5,8.5 18,8.5 17.5,8.5 Z"
             inkscape:connector-curvature="0" />
          <path
             style="fill:#f44336;fill-opacity:1;stroke:#000000;stroke-width:0.71252394;stroke-miterlimit:4;stroke-dasharray:none;stroke-opacity:1"
             id="path64"
             d="m 43.5,40 c 0,1 -0.5,1.5 -1.5,1.5 H 6 C 5,41.5 4.5,41 4.5,40 L 3.5,17 C 3.5,16 4,15.5 5,15.5 h 38 c 1,0 1.5,0.5 1.5,1.5 z"
             inkscape:connector-curvature="0" />
        </g>
        <g
           transform="translate(-574.28571,-65.714278)"
           id="g2161">
          <path
             transform="matrix(3.7795276,0,0,3.7795276,-325.20043,356.53121)"
             style="fill:#0d47a1;fill-opacity:1;stroke-width:0.26458332"
             inkscape:connector-curvature="0"
             d="m 156.93915,76.592584 c 22.84704,2.62334 39.24036,23.2709 36.61834,46.116866 -2.62335,22.84704 -23.2709,39.24036 -46.11688,36.61834 -22.84703,-2.62335 -39.24035,-23.2709 -36.61833,-46.11688 2.62334,-22.847026 23.2709,-39.240346 46.11687,-36.618326 z"
             id="path4-3"
             sodipodi:nodetypes="ccccc" />
          <path
             style="fill:#4caf50;fill-opacity:1"
             inkscape:connector-curvature="0"
             d="M 269.73,630.56 C 174.844,619.665 89.09,687.754 78.2,782.64 67.305,877.526 135.394,963.28 230.28,974.17 325.166,985.06 410.92,916.976 421.81,822.09 432.705,727.204 364.616,641.45 269.73,630.56 Z m -1.7746,15.455 c 86.351,9.915 148.31,87.953 138.4,174.3 -9.915,86.351 -87.953,148.31 -174.3,138.4 -86.351,-9.915 -148.31,-87.953 -138.4,-174.3 9.915,-86.351 87.953,-148.31 174.3,-138.4 z"
             id="path4" />
          <path
             style="fill:#4caf50;fill-opacity:1;fill-rule:evenodd"
             inkscape:connector-curvature="0"
             d="m 345.92,701 a 2.462,2.462 0 0 0 -1.7766,0.71991 2.462,2.462 0 0 0 -0.45258,2.8523 l -4.4437,4.4437 c -7.4842,2.4304 -44.035,14.754 -61.222,29.083 -18.152,15.133 -42.419,44.599 -61.231,59.113 l -24.549,7.2286 c 5.5805,-9.6894 8.2454,-20.185 8.2454,-20.185 0,0 -12.886,3.1428 -23.239,10.001 -9.119,6.0407 -28.758,25.3 -33.535,30.026 l -1.4946,-1.4946 -3.869,3.869 2.6923,2.6923 c -0.61622,0.99132 -7.0276,11.315 -10.02,17.076 -2.2672,4.3652 -4.3616,11.658 -4.3616,11.658 0,0 7.2924,-2.0944 11.658,-4.3616 5.7611,-2.9923 16.085,-9.4037 17.076,-10.02 l 2.6923,2.6923 3.869,-3.869 -1.503,-1.503 c 0.94052,-0.95587 1.5333,-1.5478 3.688,-3.7743 l 12.498,2.3724 c 16.957,3.2194 5.0444,21.217 8.4559,24.629 3.4114,3.4114 21.411,-8.5009 24.631,8.4559 l 2.3702,12.479 c -2.2274,2.1636 -2.8208,2.7595 -3.7764,3.7027 l -1.4504,-1.4504 -3.8711,3.8711 2.6923,2.6923 c -0.6171,0.99272 -7.0258,11.315 -10.018,17.076 -2.2672,4.3652 -4.3616,11.656 -4.3616,11.656 0,0 7.2903,-2.0944 11.656,-4.3616 5.7608,-2.9921 16.085,-9.4008 17.078,-10.018 l 2.6902,2.6902 3.869,-3.869 -1.5451,-1.5451 c 4.7182,-4.7879 23.94,-24.464 29.961,-33.602 6.8353,-10.376 10.068,-23.17 10.068,-23.17 0,0 -10.489,2.5697 -20.145,8.1085 l 7.1887,-24.412 c 14.514,-18.812 43.98,-43.078 59.113,-61.231 14.329,-17.187 26.653,-53.738 29.083,-61.222 l 4.4437,-4.4437 a 2.462,2.462 0 0 0 2.8523,-0.45257 2.462,2.462 0 0 0 0,-3.4817 2.462,2.462 0 0 0 -1.7051,-0.71991 z m -55.872,46.521 a 11.951,11.951 0 0 1 8.277,3.5007 11.951,11.951 0 0 1 0,16.901 11.951,11.951 0 0 1 -16.903,0 11.951,11.951 0 0 1 0,-16.901 11.951,11.951 0 0 1 8.6264,-3.5007 z m -146.42,84.409 9.1905,9.1905 c -1.406,0.8014 -6.2265,3.5409 -9.6831,5.3362 -2.8977,1.505 -8.6558,3.8122 -8.6558,3.8122 0,0 2.3093,-5.7582 3.8143,-8.6559 1.7953,-3.4566 4.533,-8.2771 5.3341,-9.6831 z m 64.649,64.652 9.1884,9.1863 c -1.4072,0.80206 -6.2251,3.5412 -9.681,5.3362 -2.8977,1.505 -8.6558,3.8122 -8.6559,3.8122 0,0 2.3072,-5.756 3.8122,-8.6537 1.7947,-3.4554 4.5335,-8.2726 5.3362,-9.681 z"
             id="path6" />
        </g>
      </g>
    </g>
  </g>
</svg>
